<svg width="48" height="44" viewBox="0 0 48 44" fill="none" xmlns="http://www.w3.org/2000/svg">
<path d="M48.0033 2.80664C48.0033 2.47834 47.9387 2.15325 47.813 1.84994C47.6874 1.54662 47.5033 1.27102 47.2711 1.03888C47.039 0.806731 46.7634 0.622583 46.46 0.496946C46.1567 0.371309 45.8316 0.306645 45.5033 0.306645H40.8833C40.0322 0.305315 39.21 0.61597 38.5725 1.17985C37.9349 1.74372 37.5261 2.52171 37.4233 3.36664L36.8433 7.80664C36.8333 7.92689 36.7783 8.03894 36.6894 8.12048C36.6004 8.20202 36.484 8.24706 36.3633 8.24664H5.50333C4.63665 8.2502 3.78336 8.46078 3.01453 8.86085C2.2457 9.26092 1.58359 9.8389 1.08333 10.5466C0.562682 11.2411 0.216442 12.0505 0.0737456 12.9067C-0.0689513 13.7629 -0.00393179 14.6408 0.263334 15.4666L4.38333 28.4466C4.72958 29.5656 5.42523 30.5441 6.36825 31.2388C7.31128 31.9334 8.45207 32.3077 9.62333 32.3066H34.2833C35.3621 32.3136 36.4072 31.931 37.2265 31.2293C38.0458 30.5275 38.5844 29.5537 38.7433 28.4866L40.1633 19.1866C40.2687 18.5433 40.1186 17.8842 39.7449 17.3499C39.3713 16.8157 38.8038 16.4485 38.1633 16.3266C37.5069 16.2342 36.8402 16.4021 36.3059 16.7945C35.7715 17.1868 35.4117 17.7726 35.3033 18.4266L34.0033 26.8866C33.9842 27.005 33.9231 27.1124 33.8314 27.1895C33.7396 27.2666 33.6232 27.3082 33.5033 27.3066H9.62333C9.51594 27.3036 9.41213 27.2673 9.32617 27.2029C9.24022 27.1384 9.17635 27.0489 9.14333 26.9466L5.02333 13.9466C4.98978 13.8782 4.97233 13.8029 4.97233 13.7266C4.97233 13.6504 4.98978 13.5751 5.02333 13.5066C5.07185 13.4467 5.13266 13.3978 5.20166 13.3633C5.27065 13.3288 5.34624 13.3095 5.42333 13.3066H37.2433C38.3481 13.3037 39.4132 12.8944 40.2357 12.1567C41.0582 11.4191 41.5806 10.4046 41.7033 9.30664L42.1633 5.80664C42.1734 5.6864 42.2284 5.57435 42.3173 5.49281C42.4063 5.41127 42.5227 5.36623 42.6433 5.36664H45.5033C45.8368 5.36674 46.1668 5.30014 46.4741 5.17077C46.7814 5.0414 47.0597 4.85187 47.2927 4.61333C47.5256 4.37479 47.7085 4.09206 47.8305 3.78179C47.9526 3.47152 48.0113 3.13996 48.0033 2.80664Z" fill="black"/>
<path d="M9.00293 38.8066C9.00293 40.0001 9.47704 41.1447 10.3209 41.9886C11.1649 42.8325 12.3095 43.3066 13.5029 43.3066C14.6964 43.3066 15.841 42.8325 16.6849 41.9886C17.5288 41.1447 18.0029 40.0001 18.0029 38.8066C18.0029 37.6132 17.5288 36.4686 16.6849 35.6247C15.841 34.7807 14.6964 34.3066 13.5029 34.3066C12.3095 34.3066 11.1649 34.7807 10.3209 35.6247C9.47704 36.4686 9.00293 37.6132 9.00293 38.8066Z" fill="black"/>
<path d="M28.5029 38.8066C28.5029 39.3976 28.6193 39.9828 28.8455 40.5287C29.0716 41.0747 29.4031 41.5708 29.8209 41.9886C30.2388 42.4065 30.7349 42.738 31.2809 42.9641C31.8268 43.1902 32.412 43.3066 33.0029 43.3066C33.5939 43.3066 34.179 43.1902 34.725 42.9641C35.271 42.738 35.767 42.4065 36.1849 41.9886C36.6028 41.5708 36.9342 41.0747 37.1604 40.5287C37.3865 39.9828 37.5029 39.3976 37.5029 38.8066C37.5029 38.2157 37.3865 37.6305 37.1604 37.0846C36.9342 36.5386 36.6028 36.0425 36.1849 35.6247C35.767 35.2068 35.271 34.8753 34.725 34.6492C34.179 34.423 33.5939 34.3066 33.0029 34.3066C32.412 34.3066 31.8268 34.423 31.2809 34.6492C30.7349 34.8753 30.2388 35.2068 29.8209 35.6247C29.4031 36.0425 29.0716 36.5386 28.8455 37.0846C28.6193 37.6305 28.5029 38.2157 28.5029 38.8066Z" fill="black"/>
</svg>
