<svg width="200" height="200" viewBox="0 0 200 200" fill="none" xmlns="http://www.w3.org/2000/svg">
<path d="M182.609 45.8333H17.3913C7.78696 45.8333 0 53.6203 0 63.2246V132.79C0 142.394 7.78696 150.181 17.3913 150.181H100L134.783 167.572L126.087 150.181H182.609C192.213 150.181 200 142.394 200 132.79V63.2246C200 53.6203 192.213 45.8333 182.609 45.8333Z" fill="#A64A7B"/>
<path d="M171.491 80.616C171.669 80.616 172.065 80.6377 172.695 80.7812C174.182 81.116 175.126 81.6421 176.261 83.7638C177.608 86.1942 178.261 89.3421 178.261 93.3942C178.261 99.4725 176.882 104.868 174.03 109.925C170.961 115.399 168.717 115.399 167.639 115.399C167.461 115.399 167.065 115.377 166.435 115.233C164.948 114.899 164.004 114.372 162.917 112.338C161.556 109.842 160.869 106.542 160.869 102.542C160.869 96.4595 162.235 91.1073 165.056 86.1725C168.222 80.616 170.513 80.616 171.491 80.616ZM171.491 67.5725C164.23 67.5725 158.335 71.6203 153.722 79.716C149.791 86.5942 147.826 94.2029 147.826 102.542C147.826 108.777 149.035 114.116 151.456 118.568C154.178 123.668 158.187 126.742 163.556 127.959C164.991 128.281 166.352 128.442 167.639 128.442C174.974 128.442 180.869 124.394 185.408 116.299C189.339 109.338 191.304 101.729 191.304 93.3942C191.304 87.0812 190.095 81.8203 187.674 77.4464C184.952 72.3464 180.943 69.2725 175.574 68.0551C174.139 67.7334 172.778 67.5725 171.491 67.5725ZM119.317 80.616C119.495 80.616 119.891 80.6377 120.482 80.7725C121.93 81.1029 122.965 81.6725 124.087 83.7682C125.435 86.1942 126.087 89.3421 126.087 93.3942C126.087 99.4725 124.708 104.868 121.856 109.925C118.787 115.399 116.543 115.399 115.465 115.399C115.287 115.399 114.891 115.377 114.261 115.233C112.774 114.899 111.83 114.372 110.743 112.338C109.382 109.842 108.695 106.542 108.695 102.542C108.695 96.4595 110.061 91.1073 112.882 86.1725C116.048 80.616 118.339 80.616 119.317 80.616ZM119.317 67.5725C112.056 67.5725 106.161 71.6203 101.548 79.716C97.6172 86.5942 95.652 94.2029 95.652 102.542C95.652 108.777 96.8606 114.116 99.2824 118.568C102.004 123.668 106.013 126.742 111.382 127.959C112.817 128.281 114.178 128.442 115.465 128.442C122.8 128.442 128.695 124.394 133.235 116.299C137.165 109.338 139.13 101.729 139.13 93.3942C139.13 87.0812 137.922 81.8203 135.5 77.4464C132.778 72.3464 128.695 69.2725 123.4 68.0551C121.965 67.7334 120.604 67.5725 119.317 67.5725ZM76.0867 137.138C74.2563 137.138 72.4693 136.364 71.2041 134.942C61.6563 124.164 55.7911 110.007 52.3346 98.6682C47.3606 109.19 40.6476 122.646 33.852 133.968C32.5085 136.207 29.965 137.412 27.3693 137.077C24.778 136.716 22.652 134.846 21.9693 132.325C12.352 96.9899 8.89543 71.6725 8.7563 70.6116C8.27804 67.0464 10.7824 63.7638 14.3476 63.2812C17.9607 62.8116 21.1998 65.3029 21.6824 68.8725C21.7128 69.0855 24.165 87.0334 30.5215 113.216C40.165 94.9203 48.252 76.1073 48.3563 75.8682C49.5172 73.1725 52.352 71.5682 55.2259 71.9769C58.1302 72.3682 60.4172 74.6508 60.8128 77.5551C60.8433 77.7812 63.1693 94.1855 70.5737 109.951C73.6998 78.7942 83.065 62.8247 83.5389 62.0334C85.3954 58.9421 89.4085 57.9421 92.4867 59.7942C95.578 61.6464 96.578 65.6551 94.7259 68.7421C94.6172 68.9334 82.6085 89.8116 82.6085 130.616C82.6085 133.325 80.9302 135.755 78.3998 136.712C77.6433 136.999 76.865 137.138 76.0867 137.138Z" fill="white"/>
</svg>
